<?xml version="1.0"?>
<svg xmlns="http://www.w3.org/2000/svg" xmlns:xlink="http://www.w3.org/1999/xlink" xmlns:svgjs="http://svgjs.com/svgjs" version="1.1" width="512" height="512" x="0" y="0" viewBox="0 0 490.667 490.667" style="enable-background:new 0 0 512 512" xml:space="preserve" class=""><g>
<g xmlns="http://www.w3.org/2000/svg">
	<g>
		<g>
			<path d="M245.333,0C110.059,0,0,110.059,0,245.333s110.059,245.333,245.333,245.333s245.333-110.059,245.333-245.333     S380.608,0,245.333,0z M245.333,469.333c-123.52,0-224-100.48-224-224s100.48-224,224-224s224,100.48,224,224     S368.853,469.333,245.333,469.333z" fill="#ffffff" data-original="#000000" class=""/>
			<path d="M314.901,262.571c0-0.021-0.021-0.043-0.021-0.064l-59.648-149.12c-3.2-8.128-16.576-8.128-19.797,0l-59.648,149.12     c0,0.021-0.021,0.043-0.021,0.064l-25.664,64.149c-2.176,5.44,0.469,11.648,5.931,13.845c5.44,2.197,11.669-0.469,13.845-5.931     l22.933-57.301h105.024l22.912,57.301c1.685,4.16,5.696,6.699,9.92,6.699c1.323,0,2.667-0.256,3.968-0.768     c5.483-2.197,8.128-8.405,5.931-13.845L314.901,262.571z M201.344,256l43.989-109.931L289.323,256H201.344z" fill="#ffffff" data-original="#000000" class=""/>
		</g>
	</g>
</g>
<g xmlns="http://www.w3.org/2000/svg">
</g>
<g xmlns="http://www.w3.org/2000/svg">
</g>
<g xmlns="http://www.w3.org/2000/svg">
</g>
<g xmlns="http://www.w3.org/2000/svg">
</g>
<g xmlns="http://www.w3.org/2000/svg">
</g>
<g xmlns="http://www.w3.org/2000/svg">
</g>
<g xmlns="http://www.w3.org/2000/svg">
</g>
<g xmlns="http://www.w3.org/2000/svg">
</g>
<g xmlns="http://www.w3.org/2000/svg">
</g>
<g xmlns="http://www.w3.org/2000/svg">
</g>
<g xmlns="http://www.w3.org/2000/svg">
</g>
<g xmlns="http://www.w3.org/2000/svg">
</g>
<g xmlns="http://www.w3.org/2000/svg">
</g>
<g xmlns="http://www.w3.org/2000/svg">
</g>
<g xmlns="http://www.w3.org/2000/svg">
</g>
</g></svg>
