<?xml version="1.0" encoding="iso-8859-1"?>
<!-- Generator: Adobe Illustrator 19.0.0, SVG Export Plug-In . SVG Version: 6.00 Build 0)  -->
<svg width="30px" fill="#255361" version="1.1" id="Capa_1" xmlns="http://www.w3.org/2000/svg" xmlns:xlink="http://www.w3.org/1999/xlink" x="0px" y="0px"
	 viewBox="0 0 512 512" style="enable-background:new 0 0 512 512;" xml:space="preserve">
<g>
	<g>
		<g>
			<path d="M486.4,68.267H25.6C11.483,68.267,0,79.75,0,93.867v324.267c0,14.117,11.483,25.6,25.6,25.6h460.8
				c14.117,0,25.6-11.483,25.6-25.6V93.867C512,79.75,500.517,68.267,486.4,68.267z M494.933,418.133
				c0,4.708-3.825,8.533-8.533,8.533H25.6c-4.708,0-8.533-3.825-8.533-8.533V93.867c0-4.704,3.825-8.533,8.533-8.533h460.8
				c4.708,0,8.533,3.829,8.533,8.533V418.133z"/>
			<path d="M101.925,193.454c-1.208-3.396-4.425-5.662-8.033-5.662s-6.825,2.267-8.033,5.662L43.192,312.917
				c-1.592,4.433,0.725,9.317,5.167,10.9c4.408,1.6,9.317-0.733,10.9-5.167l10.157-28.433h48.953l10.157,28.433
				c1.242,3.492,4.525,5.667,8.033,5.667c0.95,0,1.925-0.158,2.867-0.5c4.442-1.583,6.758-6.467,5.167-10.9L101.925,193.454z
				 M75.511,273.15l18.38-51.454l18.38,51.454H75.511z"/>
			<path d="M358.433,187.792H273.1c-4.717,0-8.533,3.821-8.533,8.533c0,4.713,3.817,8.533,8.533,8.533h34.158v110.925
				c0,4.717,3.817,8.533,8.533,8.533c4.717,0,8.533-3.817,8.533-8.533V204.858h34.108c4.717,0,8.533-3.821,8.533-8.533
				C366.967,191.612,363.15,187.792,358.433,187.792z"/>
			<path d="M239.025,187.683c-4.717,0-8.533,3.821-8.533,8.533v81.058c0,16.467-13.4,29.867-29.867,29.867
				s-29.867-13.4-29.867-29.867v-81.058c0-4.713-3.817-8.533-8.533-8.533c-4.717,0-8.533,3.821-8.533,8.533v81.058
				c0,25.875,21.058,46.933,46.933,46.933c25.875,0,46.933-21.058,46.933-46.933v-81.058
				C247.558,191.504,243.742,187.683,239.025,187.683z"/>
			<path d="M422.625,187.683c-25.875,0-46.933,21.054-46.933,46.933v42.658c0,25.875,21.058,46.933,46.933,46.933
				c25.875,0,46.933-21.058,46.933-46.933v-42.658C469.558,208.738,448.5,187.683,422.625,187.683z M452.492,277.275
				c0,16.467-13.4,29.867-29.867,29.867c-16.467,0-29.867-13.4-29.867-29.867v-42.658c0-16.467,13.4-29.867,29.867-29.867
				c16.467,0,29.867,13.4,29.867,29.867V277.275z"/>
		</g>
	</g>
</g>
<g>
</g>
<g>
</g>
<g>
</g>
<g>
</g>
<g>
</g>
<g>
</g>
<g>
</g>
<g>
</g>
<g>
</g>
<g>
</g>
<g>
</g>
<g>
</g>
<g>
</g>
<g>
</g>
<g>
</g>
</svg>
