<svg enable-background="new 0 0 32 32" height="25px" viewBox="0 0 32 32" width="100%" xmlns="http://www.w3.org/2000/svg"><g id="Layer_1"><path d="m21.895 19.553-5-10c-.34-.678-1.449-.678-1.789 0l-5 10c-.245.491-.043 1.096.447 1.342s1.096.043 1.342-.447l1.223-2.448h5.764l1.224 2.447c.253.42.722.628 1.123.527.52-.132.886-.779.666-1.421zm-7.777-3.553 1.882-3.764 1.882 3.764z" fill="#C4B6C4"/><g><path d="m16 31c-8.271 0-15-6.729-15-15s6.729-15 15-15 15 6.729 15 15-6.729 15-15 15zm0-28c-7.168 0-13 5.832-13 13s5.832 13 13 13 13-5.832 13-13-5.832-13-13-13z" fill="#C4B6C4"/></g></g></svg>