<svg width="85" height="85" viewBox="0 0 85 85" fill="none" xmlns="http://www.w3.org/2000/svg">
<g clip-path="url(#clip0_10_639)">
<path d="M69.1667 25.4002H38.5L32.4 18.1502C32.1948 17.9036 31.8873 17.7652 31.5667 17.7752H6.825C3.0475 17.8027 0 20.8727 0 24.6502V69.2419C0.00458333 73.0323 3.07625 76.104 6.86667 76.1086H69.1667C72.9571 76.104 76.0288 73.0323 76.0333 69.2419V32.2669C76.0288 28.4765 72.9571 25.4048 69.1667 25.4002Z" fill="white"/>
<path d="M78.1751 16.5169H47.5001L41.4001 9.26686C41.1949 9.0202 40.8874 8.88186 40.5668 8.89186H15.8334C12.4059 8.89749 9.50758 11.4296 9.04175 14.8252H31.6001C32.783 14.8223 33.9061 15.3444 34.6667 16.2502L39.8751 22.4419H69.1668C74.5845 22.451 78.9743 26.8408 78.9834 32.2585V67.1585C82.4184 66.73 84.9974 63.8118 85.0001 60.3502V23.3752C84.9911 19.6042 81.9459 16.5444 78.1751 16.5169Z" fill="white"/>
</g>
<defs>
<clipPath id="clip0_10_639">
<rect width="85" height="85" fill="white"/>
</clipPath>
</defs>
</svg>
