<svg width="85" height="85" viewBox="0 0 85 85" fill="none" xmlns="http://www.w3.org/2000/svg">
<path fill-rule="evenodd" clip-rule="evenodd" d="M67.4023 55.6996C67.4023 60.1971 63.7449 63.8546 59.2472 63.8546H25.7533C21.256 63.8546 17.5977 60.1968 17.5977 55.6996V33.9552C17.5977 29.4577 21.256 25.801 25.7533 25.801H30.3862C31.5295 25.801 32.4615 24.8688 32.4615 23.7256V22.9223C32.4615 20.1111 34.7467 17.8248 37.558 17.8248H47.4425C50.2539 17.8248 52.539 20.111 52.539 22.9223V23.7256C52.539 24.8686 53.4713 25.801 54.6143 25.801H59.2472C63.7447 25.801 67.4023 29.4575 67.4023 33.9552V55.6996ZM42.5003 29.7404C34.7535 29.7404 28.4511 36.043 28.4511 43.7896C28.4511 51.5367 34.7537 57.8389 42.5003 57.8389C50.247 57.8389 56.5496 51.5367 56.5496 43.7896C56.5496 36.043 50.247 29.7404 42.5003 29.7404V29.7404ZM42.5003 54.5184C48.4166 54.5184 53.2291 49.7064 53.2291 43.7896C53.2291 37.8733 48.4166 33.0609 42.5003 33.0609C36.584 33.0609 31.7716 37.8733 31.7716 43.7896C31.7714 49.7064 36.5839 54.5184 42.5003 54.5184Z" fill="white"/>
</svg>
