<svg id="Layer_1" enable-background="new 0 0 50 50" height="35px" viewBox="0 0 50 50" width="100%" xmlns="http://www.w3.org/2000/svg"><g><path d="m40.5 22.2-2-.2c-.4 0-.6-.3-.7-.7-.1-.3-.2-.7-.3-1s0-.7.3-.9l1.6-1.2c.3-.3.4-.7.2-1.1l-1-1.7c-.2-.4-.7-.5-1-.3l-1.9.8c-.3.1-.7.1-.9-.2s-.5-.5-.7-.7c-.3-.2-.4-.6-.2-1l.8-1.9c.2-.4 0-.8-.4-1l-1.7-1c-.4-.2-.8-.1-1.1.2l-1.2 1.7c-.2.3-.6.4-.9.3s-.7-.2-1-.3c-.4-.1-.6-.4-.7-.7l-.2-2.1c0-.4-.4-.7-.8-.7h-2c-.4 0-.8.3-.8.7l-.2 2.1c0 .4-.3.6-.7.7-.3.1-.7.2-1 .3s-.7 0-.9-.3l-1.2-1.7c-.2-.3-.7-.4-1.1-.2l-1.8.9c-.4.2-.5.7-.4 1l.8 1.9c.1.3.1.7-.2 1-.3.2-.5.5-.7.7-.2.3-.6.4-1 .2l-1.8-.8c-.4-.2-.8 0-1 .3l-1 1.7c-.2.4-.1.8.2 1.1l1.6 1.2c.3.2.4.6.3.9s-.2.7-.3 1c-.1.4-.4.6-.7.7l-2 .2c-.4 0-.7.4-.7.8v2c0 .4.3.8.7.8l2 .2c.4 0 .6.3.7.7.1.3.2.7.3 1s0 .7-.3.9l-1.6 1.2c-.3.3-.4.7-.2 1.1l1 1.7c.2.4.7.5 1 .3l1.8-.8c.3-.1.7-.1 1 .2s.5.5.8.8c.3.2.4.6.2.9l-.8 2.1c-.2.4 0 .8.3 1l1.7 1c.4.2.8.1 1.1-.2l1.1-1.6c.2-.3.6-.4.9-.3.4.1.7.2 1.1.3s.6.4.7.7l.2 1.9c0 .4.4.7.8.7h2c.4 0 .8-.3.8-.7l.2-1.9c0-.4.3-.6.7-.7s.7-.2 1.1-.3.7 0 .9.3l1.1 1.6c.3.3.7.4 1.1.2l1.7-1c.4-.2.5-.7.3-1l-.8-1.8c-.1-.3-.1-.7.2-.9.3-.3.5-.5.8-.8.2-.3.6-.4 1-.2l1.8.8c.4.2.8 0 1-.3l1-1.7c.2-.4.1-.8-.2-1.1l-1.6-1.2c-.3-.2-.4-.6-.3-.9s.2-.7.3-1c.1-.4.4-.6.7-.7l2-.2c.4 0 .7-.4.7-.8v-2c.2-.6-.2-1-.6-1zm-14.8 9.3c-4.2 0-7.5-3.4-7.5-7.5s3.4-7.5 7.5-7.5c4.2 0 7.5 3.4 7.5 7.5s-3.4 7.5-7.5 7.5z" fill="#676767"/><g><path d="m44.8 7.3c-.1-.4-.5-.5-.8-.3l-1.2 1.1c-.2.2-.5.2-.7 0-.8-.8-1.6-1.6-2.5-2.3-7.8-5.9-18.5-6.3-26.6-.9-.6.4-.7 1.2-.4 1.7.2.3.4.4.6.5.4.2.8.2 1.2-.1 7.2-4.8 16.7-4.5 23.6.8.8.6 1.5 1.2 2.2 1.9.2.2.2.5 0 .7l-1.4 1.2c-.3.3-.2.7.2.8l6.6 2.1c.4.1.7-.2.6-.6z" fill="#88c057"/><path d="m16.6 42.2c-7.7-3.9-12.2-12.3-11.1-20.9.1-1 .3-1.9.6-2.8.1-.3.4-.4.6-.3l1.7.6c.4.1.7-.2.6-.6l-1.5-6.7c-.1-.4-.5-.5-.8-.3l-5.2 4.5c-.3.3-.2.7.2.9l1.7.4c.3.1.4.3.3.6-.3 1.1-.5 2.3-.7 3.4-1.3 9.7 3.8 19.1 12.5 23.4.6.3 1.4.1 1.7-.6.1-.2.2-.5.1-.7 0-.4-.3-.7-.7-.9z" fill="#ed7161"/><path d="m48.4 22.5c0-.7-.6-1.2-1.3-1.2-.2 0-.5.1-.7.2-.3.2-.5.7-.5 1.1.5 8.7-4.5 16.7-12.5 20.1-.9.4-1.8.7-2.7.9-.3.1-.6-.1-.6-.4l-.4-1.8c-.1-.4-.5-.5-.8-.3l-5.1 4.6c-.3.3-.2.7.2.8l6.5 2.2c.4.1.7-.2.6-.6l-.3-1.6c-.1-.3.1-.5.4-.6 1.1-.3 2.2-.6 3.2-1.1 9-3.5 14.7-12.6 14-22.3z" fill="#6ab7e6"/></g></g></svg>