<svg id="Capa_1" enable-background="new 0 0 512 512" height="25px" viewBox="0 0 512 512" width="100%" fill="white" xmlns="http://www.w3.org/2000/svg"><g><g><g><path d="m391.568 455.768c-4.221-7.128-13.42-9.486-20.549-5.265-35.765 21.175-75.456 31.495-114.892 31.493-49.448-.002-98.485-16.237-138.826-47.649l14.156-3.338c8.063-1.901 13.059-9.979 11.157-18.042-1.901-8.063-9.979-13.058-18.042-11.157l-42.428 10.003c-6.772 1.597-11.558 7.641-11.558 14.599v42.427c0 8.284 6.716 15 15 15s15-6.716 15-15v-9.506c45.367 34.722 100.22 52.668 155.546 52.667 44.674-.001 89.652-11.694 130.169-35.683 7.13-4.22 9.487-13.42 5.267-20.549z"/><path d="m110.185 124.572-10.003-42.428c-1.597-6.772-7.641-11.558-14.599-11.558h-42.427c-8.284 0-15 6.716-15 15s6.716 15 15 15h9.502c-62.758 82.003-70.675 195.022-16.979 285.716 4.22 7.129 13.421 9.487 20.549 5.266 7.128-4.22 9.485-13.42 5.265-20.548-47.725-80.611-40.307-181.209 16.155-253.72l3.338 14.156c1.901 8.063 9.979 13.059 18.042 11.157 8.063-1.9 13.059-9.978 11.157-18.041z"/><path d="m426.413 28.156c-8.284 0-15 6.716-15 15v9.501c-82.001-62.757-195.021-70.674-285.715-16.978-7.128 4.22-9.486 13.42-5.266 20.549 4.22 7.128 13.42 9.486 20.549 5.266 80.609-47.725 181.207-40.306 253.718 16.155l-14.156 3.338c-8.063 1.901-13.059 9.979-11.157 18.042 1.901 8.063 9.979 13.058 18.042 11.157l42.428-10.003c6.773-1.597 11.558-7.641 11.558-14.6v-42.427c-.001-8.284-6.717-15-15.001-15z"/><path d="m468.844 411.413h-9.502c62.758-82.002 70.675-195.021 16.979-285.716-4.22-7.128-13.42-9.486-20.549-5.266-7.128 4.22-9.486 13.42-5.266 20.549 47.725 80.61 40.307 181.209-16.155 253.719l-3.338-14.156c-1.901-8.063-9.979-13.059-18.042-11.157-8.063 1.901-13.058 9.979-11.157 18.042l10.003 42.428c1.597 6.773 7.641 11.558 14.6 11.558h42.427c8.284 0 15-6.716 15-15 0-8.285-6.716-15.001-15-15.001z"/></g></g><path d="m406 221h-9.268c-3.477-13.956-9.052-27.401-16.482-39.753l6.564-6.564c5.858-5.857 5.858-15.355 0-21.213l-28.284-28.284c-5.857-5.857-15.355-5.857-21.213 0l-6.564 6.564c-12.354-7.432-25.796-13.005-39.753-16.482v-9.268c0-8.284-6.716-15-15-15h-40c-8.284 0-15 6.716-15 15v9.268c-13.957 3.478-27.399 9.051-39.753 16.482l-6.564-6.564c-5.857-5.857-15.355-5.857-21.213 0l-28.284 28.284c-5.858 5.857-5.858 15.355 0 21.213l6.564 6.564c-7.431 12.352-13.006 25.797-16.482 39.753h-9.268c-8.284 0-15 6.716-15 15v40c0 8.284 6.716 15 15 15h9.268c3.477 13.956 9.052 27.401 16.482 39.753l-6.564 6.564c-5.858 5.857-5.858 15.355 0 21.213l28.284 28.284c5.857 5.857 15.355 5.857 21.213 0l6.564-6.564c12.352 7.431 25.797 13.006 39.753 16.482v9.268c0 8.284 6.716 15 15 15h40c8.284 0 15-6.716 15-15v-9.268c13.956-3.477 27.401-9.052 39.753-16.482l6.564 6.564c5.857 5.857 15.355 5.857 21.213 0l28.284-28.284c5.858-5.857 5.858-15.355 0-21.213l-6.564-6.564c7.431-12.352 13.006-25.797 16.482-39.753h9.268c8.284 0 15-6.716 15-15v-40c0-8.284-6.716-15-15-15zm-150 95.001c-33.138 0-60.001-26.863-60.001-60.001s26.863-60.001 60.001-60.001 60.001 26.863 60.001 60.001-26.863 60.001-60.001 60.001z"/></g></svg>