<svg width="85" height="85" viewBox="0 0 85 85" fill="none" xmlns="http://www.w3.org/2000/svg">
<g clip-path="url(#clip0_9_482)">
<path d="M85 42.5C85 65.8958 66.0342 85 42.5 85C19.1042 85 0 65.8958 0 42.5C0 18.9658 18.9658 0 42.5 0C66.0342 0 85 18.9658 85 42.5Z" fill="#FF4820"/>
<path d="M72.5407 12.4593C89.153 29.0717 89.153 55.9283 72.5407 72.5407C55.9283 89.1531 29.0716 89.1531 12.4592 72.5407" fill="#FF4820"/>
<path d="M59.1125 56.3437C59.1125 58.2818 58.1434 59.1124 56.3437 59.1124H28.6564C26.7183 59.1124 25.8877 58.1433 25.8877 56.3437V28.6564C25.8877 26.7183 26.8568 25.8876 28.6564 25.8876H56.3437C58.2818 25.8876 59.1125 26.8567 59.1125 28.6564V56.3437Z" fill="#FFB5A9"/>
<path d="M59.1123 56.4821C59.1123 57.8665 58.0048 59.1124 56.482 59.1124H35.4396C34.0553 59.1124 32.8093 58.0049 32.8093 56.4821V35.4397C32.8093 34.0554 33.9168 32.8094 35.4396 32.8094H56.6204C58.0048 32.8094 59.2507 33.9169 59.2507 35.4397V56.4821H59.1123Z" fill="#FFB5A9"/>
</g>
<defs>
<clipPath id="clip0_9_482">
<rect width="85" height="85" fill="white"/>
</clipPath>
</defs>
</svg>
