<svg width="85" height="85" viewBox="0 0 85 85" fill="none" xmlns="http://www.w3.org/2000/svg"><path xmlns="http://www.w3.org/2000/svg" d="m255.996094 511.980469c-141.160156 0-255.996094-114.828125-255.996094-255.984375 0-60.816406 21.699219-119.761719 61.109375-165.980469 5.867187-6.886719 16.207031-7.714844 23.101563-1.847656 6.886718 5.875 7.710937 16.214843 1.835937 23.101562-34.359375 40.289063-53.28125 91.691407-53.28125 144.726563 0 123.089844 100.140625 223.230468 223.230469 223.230468 123.097656 0 223.230468-100.140624 223.230468-223.230468s-100.132812-223.242188-223.230468-223.242188c-53.125.011719-104.585938 18.992188-144.914063 53.445313-6.875 5.890625-17.226562 5.066406-23.101562-1.8125-5.882813-6.875-5.066407-17.214844 1.8125-23.101563 46.261719-39.507812 105.277343-61.2773435 166.203125-61.285156 141.160156 0 256.003906 114.828125 256.003906 255.996094 0 141.167968-114.847656 255.984375-256.003906 255.984375zm0 0" fill="#ffffff" data-original="#000000"/><path xmlns="http://www.w3.org/2000/svg" d="m321.453125 349.878906c-6.609375 0-12.832031-4.027344-15.324219-10.578125l-50.132812-132.222656-50.132813 132.222656c-3.203125 8.464844-12.65625 12.726563-21.121093 9.511719-8.464844-3.203125-12.71875-12.671875-9.511719-21.128906l65.449219-172.636719c2.414062-6.371094 8.511718-10.570313 15.316406-10.570313 6.808594 0 12.914062 4.207032 15.316406 10.570313l65.453125 172.636719c3.203125 8.457031-1.050781 17.925781-9.515625 21.128906-1.910156.722656-3.871094 1.066406-5.796875 1.066406zm0 0" fill="#ffffff" data-original="#000000"/><path xmlns="http://www.w3.org/2000/svg" d="m307.519531 313.128906h-103.039062c-9.054688 0-16.382813-7.328125-16.382813-16.382812 0-9.050782 7.335938-16.382813 16.382813-16.382813h103.050781c9.050781 0 16.382812 7.332031 16.382812 16.382813 0 9.054687-7.339843 16.382812-16.394531 16.382812zm0 0" fill="#ffffff" data-original="#000000"/></svg>
